<?xml version="1.0" encoding="UTF-8"?>
<svg version="1.1" xmlns="http://www.w3.org/2000/svg" width="100" height="100">
<path d="M0 0 C33 0 66 0 100 0 C100 33 100 66 100 100 C67 100 34 100 0 100 C0 67 0 34 0 0 Z " fill="#C7C61F" transform="translate(0,0)"/>
<path d="M0 0 C20.79 0 41.58 0 63 0 C59.58139535 11.39534884 59.58139535 11.39534884 57.9375 15.0625 C57.45603516 16.16271484 57.45603516 16.16271484 56.96484375 17.28515625 C56 19 56 19 54 20 C53.49095343 18.12743583 52.99317545 16.25180659 52.5 14.375 C52.2215625 13.33085937 51.943125 12.28671875 51.65625 11.2109375 C51 8 51 8 51 2 C44.73 2 38.46 2 32 2 C31.773125 3.77375 31.54625 5.5475 31.3125 7.375 C30.12088544 15.77631129 28.49387229 24.08403175 26.8527832 32.40771484 C25.4414473 39.58667028 24.16251198 46.77651426 23 54 C21.35 54 19.7 54 18 54 C18 60.6 18 67.2 18 74 C23.28 74 28.56 74 34 74 C31.8262084 81.39089144 29.46996624 88.70294237 27 96 C27.95712891 96.18175781 27.95712891 96.18175781 28.93359375 96.3671875 C29.75988281 96.53476563 30.58617188 96.70234375 31.4375 96.875 C32.26121094 97.03742188 33.08492187 97.19984375 33.93359375 97.3671875 C34.61550781 97.57601562 35.29742187 97.78484375 36 98 C36.33 98.66 36.66 99.32 37 100 C24.79 100 12.58 100 0 100 C0 67 0 34 0 0 Z " fill="#FBFBFB" transform="translate(0,0)"/>
<path d="M0 0 C11.55 0 23.1 0 35 0 C35 33 35 66 35 100 C15.2 100 -4.6 100 -25 100 C-24 93 -24 93 -23 91 C-22.34 91 -21.68 91 -21 91 C-20.36578125 91.97066406 -19.7315625 92.94132812 -19.078125 93.94140625 C-17.31061866 96.13655596 -16.33866077 96.91026995 -13.58398438 97.64013672 C-10.61892472 97.91908504 -7.7276925 97.96587699 -4.75 97.9375 C-3.75097656 97.98583984 -2.75195312 98.03417969 -1.72265625 98.08398438 C4.04419464 98.09529193 7.53969173 97.18461928 11.79467773 93.18676758 C16.07950716 88.64503435 17.0487378 85.33806274 17.12226868 79.18035889 C17.08836533 78.1050592 17.05446198 77.02975952 17.01953125 75.921875 C17.01628342 74.79227356 17.01303558 73.66267212 17.00968933 72.49884033 C16.99398182 70.12529251 16.95661611 67.75179892 16.89868164 65.37890625 C16.81240821 61.74613479 16.79616877 58.11807953 16.79101562 54.484375 C16.76710799 52.17182913 16.73925025 49.85932 16.70703125 47.546875 C16.6994429 46.46347839 16.69185455 45.38008179 16.68403625 44.26385498 C16.53339954 38.28600249 16.53339954 38.28600249 14.1159668 32.91894531 C9.53846035 28.68491359 9.53846035 28.68491359 4 26 C4.76245421 21.18399177 6.41279856 16.75384298 8.0625 12.1875 C8.34416016 11.39923828 8.62582031 10.61097656 8.91601562 9.79882812 C9.60758538 7.86477711 10.30337278 5.93223512 11 4 C9.86498047 3.78537109 9.86498047 3.78537109 8.70703125 3.56640625 C5.7077106 2.93884277 2.89104756 2.00850496 0 1 C0 0.67 0 0.34 0 0 Z " fill="#FCFCFC" transform="translate(65,0)"/>
<path d="M0 0 C0.60328125 0.20496094 1.2065625 0.40992188 1.828125 0.62109375 C2.62734375 0.89050781 3.4265625 1.15992187 4.25 1.4375 C5.03890625 1.70433594 5.8278125 1.97117188 6.640625 2.24609375 C8.74821988 2.91954708 10.84753973 3.49150595 13 4 C12.35983027 9.13756468 10.80299667 13.58790181 8.9375 18.375 C8.65583984 19.11105469 8.37417969 19.84710937 8.08398438 20.60546875 C7.39433382 22.4055736 6.69786068 24.2030621 6 26 C6.58523437 26.10570313 7.17046875 26.21140625 7.7734375 26.3203125 C10.31266895 27.09544631 11.64641546 28.12303748 13.625 29.875 C14.21539062 30.38804688 14.80578125 30.90109375 15.4140625 31.4296875 C18.54498799 34.52976644 19.26204277 36.68970227 19.38574219 40.95532227 C19.41786804 41.96389786 19.4499939 42.97247345 19.48309326 44.01161194 C19.57240029 48.63897632 19.65417933 53.26577241 19.70019531 57.89379883 C19.7332336 60.32745728 19.78771013 62.76092486 19.86425781 65.19360352 C20.57734246 87.98595923 20.57734246 87.98595923 14.69140625 94.59375 C9.09603175 98.75029972 3.9926376 99.35811683 -2.8125 98.9375 C-3.82248047 98.93427734 -4.83246094 98.93105469 -5.87304688 98.92773438 C-13.92515479 98.68856285 -13.92515479 98.68856285 -17.19921875 95.56640625 C-19 93 -19 93 -19 91 C-19.66 91 -20.32 91 -21 91 C-21.66 93.97 -22.32 96.94 -23 100 C-25.99570305 99.25107424 -28.83353744 98.42395057 -31.75 97.4375 C-32.54921875 97.16808594 -33.3484375 96.89867188 -34.171875 96.62109375 C-34.77515625 96.41613281 -35.3784375 96.21117188 -36 96 C-35.38941178 91.78253496 -34.42965759 87.90940467 -33.0625 83.875 C-32.72347656 82.86179687 -32.38445313 81.84859375 -32.03515625 80.8046875 C-31 78 -31 78 -29 74 C-34.28 74 -39.56 74 -45 74 C-45 67.4 -45 60.8 -45 54 C-43.35 54 -41.7 54 -40 54 C-40.12375 52.2984375 -40.12375 52.2984375 -40.25 50.5625 C-40.25 45.24618202 -39.00147015 40.35264521 -37.71069336 35.23803711 C-35.85544405 27.74970903 -34.56888215 20.18743275 -33.30761719 12.57958984 C-33.15067383 11.63809082 -32.99373047 10.6965918 -32.83203125 9.7265625 C-32.69514893 8.88689941 -32.5582666 8.04723633 -32.41723633 7.18212891 C-32 5 -32 5 -31 2 C-24.73 2 -18.46 2 -12 2 C-10.68 7.61 -9.36 13.22 -8 19 C-5.166687 12.7262355 -2.51496922 6.40782052 0 0 Z M1 4 C-3.60681092 16.96327125 -3.60681092 16.96327125 -8 30 C-8.66 30 -9.32 30 -10 30 C-10.0825 28.845 -10.165 27.69 -10.25 26.5 C-11.03684285 19.18353585 -13.1274578 12.09824136 -15 5 C-19.62 5 -24.24 5 -29 5 C-30.125277 10.958271 -31.24613581 16.91735051 -32.36303711 22.87719727 C-32.74302975 24.90150997 -33.12419592 26.92560278 -33.5065918 28.94946289 C-34.05832044 31.87067542 -34.60572266 34.79267172 -35.15234375 37.71484375 C-35.3221727 38.60896469 -35.49200165 39.50308563 -35.66697693 40.42430115 C-36.693322 45.93915057 -37.44349203 51.41760674 -38 57 C-39.32 57 -40.64 57 -42 57 C-42 61.62 -42 66.24 -42 71 C-36.39 71 -30.78 71 -25 71 C-27.9375 78.0625 -27.9375 78.0625 -28.85913086 80.24243164 C-30.60302898 84.52089602 -31.52764232 88.40198665 -32 93 C-29.21885944 95.33391203 -29.21885944 95.33391203 -26.3125 94.625 C-25.1678125 94.315625 -25.1678125 94.315625 -24 94 C-23.01 91.03 -22.02 88.06 -21 85 C-20.51789062 85.55429688 -20.03578125 86.10859375 -19.5390625 86.6796875 C-18.90742187 87.40414062 -18.27578125 88.12859375 -17.625 88.875 C-16.99851562 89.59429687 -16.37203125 90.31359375 -15.7265625 91.0546875 C-13.36788817 94.00255478 -13.36788817 94.00255478 -10.03222656 95.32226562 C-7.43759324 95.41337974 -4.84610124 95.47058242 -2.25 95.5 C-1.35539062 95.54125 -0.46078125 95.5825 0.4609375 95.625 C5.20598 95.6809887 8.1357574 95.47918028 11.640625 92.09375 C14.20213538 89.38340673 14.20213538 89.38340673 14 87 C14.66 87 15.32 87 16 87 C16 76.44 16 65.88 16 55 C9.73 55 3.46 55 -3 55 C-3 59.62 -3 64.24 -3 69 C-1.35 69 0.3 69 2 69 C2 72.96 2 76.92 2 81 C-0.97 81 -3.94 81 -7 81 C-7 69.12 -7 57.24 -7 45 C-9.70716903 47.70716903 -10.54725812 48.8116251 -11.8671875 52.17578125 C-12.19299805 52.99723633 -12.51880859 53.81869141 -12.85449219 54.66503906 C-13.19125977 55.53870117 -13.52802734 56.41236328 -13.875 57.3125 C-14.22723633 58.20807617 -14.57947266 59.10365234 -14.94238281 60.02636719 C-17.40315249 66.32602778 -19.6803137 72.67510515 -21.90234375 79.0625 C-23.32768622 82.87693963 -25.12537524 86.38961158 -27 90 C-27 90.66 -27 91.32 -27 92 C-27.66 92 -28.32 92 -29 92 C-27.50460471 87.3098966 -25.91259209 82.68807298 -24.0625 78.125 C-22.574986 74.45503303 -21.13352135 70.77307493 -19.75 67.0625 C-19.41484375 66.16660156 -19.0796875 65.27070312 -18.734375 64.34765625 C-17.85072688 61.9327752 -17.85072688 61.9327752 -18 59 C-17.34 59 -16.68 59 -16 59 C-15.67386719 58.0821875 -15.34773438 57.164375 -15.01171875 56.21875 C-14.57472656 54.9915625 -14.13773438 53.764375 -13.6875 52.5 C-13.25824219 51.2934375 -12.82898438 50.086875 -12.38671875 48.84375 C-10.96416515 44.88077869 -9.49048094 40.93785303 -8 37 C-7.59740967 35.93088379 -7.19481934 34.86176758 -6.7800293 33.76025391 C-5.60935144 30.66576973 -4.42865064 27.57564541 -3.23876953 24.48852539 C-2.74206332 23.19357652 -2.24961552 21.89698699 -1.76123047 20.59887695 C-1.04941722 18.7089962 -0.32182662 16.82508133 0.40625 14.94140625 C0.83228516 13.82451416 1.25832031 12.70762207 1.69726562 11.55688477 C3 9 3 9 6 8 C5.59007812 8.92941406 5.18015625 9.85882813 4.7578125 10.81640625 C4.21331134 12.06500375 3.66905352 13.31370739 3.125 14.5625 C2.85558594 15.17158203 2.58617187 15.78066406 2.30859375 16.40820312 C0.51374991 20.54509929 -0.84414021 24.64027642 -2 29 C-1.01 29 -0.02 29 1 29 C2.3417678 25.73256344 3.67194359 22.46053092 5 19.1875 C5.3815625 18.25873047 5.763125 17.32996094 6.15625 16.37304688 C6.5171875 15.48037109 6.878125 14.58769531 7.25 13.66796875 C7.58515625 12.84578857 7.9203125 12.0236084 8.265625 11.17651367 C9.15985056 8.90908534 9.15985056 8.90908534 9 6 C6.09399739 4.74335022 4.20395416 4 1 4 Z " fill="#151404" transform="translate(63,0)"/>
<path d="M0 0 C3.3 0 6.6 0 10 0 C17.209433 27.89280632 17.209433 27.89280632 15 36 C14.34 36.66 13.68 37.32 13 38 C10.625 37.625 10.625 37.625 8 36 C6.91991217 32.72174346 6.42269769 29.41943506 6 26 C4.02254878 30.76914707 3.88132949 33.96598273 5 39 C5.95584438 41.33588323 5.95584438 41.33588323 7 43 C6 44 6 44 3.4375 44.0625 C2.633125 44.041875 1.82875 44.02125 1 44 C0.67 46.64 0.34 49.28 0 52 C0.66 52 1.32 52 2 52 C2 54.64 2 57.28 2 60 C-2.62 60 -7.24 60 -12 60 C-12 57.36 -12 54.72 -12 52 C-11.01 52 -10.02 52 -9 52 C-8.87044922 50.59427734 -8.87044922 50.59427734 -8.73828125 49.16015625 C-7.50135943 36.90380714 -5.120318 24.94479365 -2.6015625 12.89501953 C-1.70941913 8.60157955 -0.85466881 4.30104166 0 0 Z " fill="#0D0C03" transform="translate(36,8)"/>
<path d="M0 0 C0.33 0 0.66 0 1 0 C1 9.9 1 19.8 1 30 C5.29 30 9.58 30 14 30 C14 24.72 14 19.44 14 14 C12.35 14 10.7 14 9 14 C9 10.7 9 7.4 9 4 C13.95 4 18.9 4 24 4 C24 13.57 24 23.14 24 33 C23.01 33 22.02 33 21 33 C20.566875 33.928125 20.566875 33.928125 20.125 34.875 C19 37 19 37 17 39 C13.94136602 39.52542905 10.84859927 39.4629465 7.75 39.5 C6.90308594 39.54125 6.05617188 39.5825 5.18359375 39.625 C0.73957508 39.68029106 -2.18639354 39.42334704 -5.5625 36.37109375 C-9.12582317 32.1338649 -8.81767447 28.23833351 -8.6015625 22.88671875 C-7.33590066 14.70922827 -3.75124204 7.32038495 0 0 Z " fill="#030205" transform="translate(53,53)"/>
<path d="M0 0 C0.99 0 1.98 0 3 0 C0.73011593 7.11918187 -1.6520943 14.3041886 -5 21 C-4.3709375 20.9071875 -3.741875 20.814375 -3.09375 20.71875 C0.89803908 20.38209309 3.86882536 20.38743099 7.4453125 22.32421875 C11.0631393 25.41687715 12.80467911 27.64050458 13.4921875 32.42578125 C13.49917245 35.62139411 13.26538184 38.81541795 13 42 C8.05 42 3.1 42 -2 42 C-2 40.35 -2 38.7 -2 37 C-2.66 37 -3.32 37 -4 37 C-4 39.31 -4 41.62 -4 44 C-5.485 43.505 -5.485 43.505 -7 43 C-7 41.02 -7 39.04 -7 37 C-7.66 37 -8.32 37 -9 37 C-9 48.88 -9 60.76 -9 73 C-9.33 73 -9.66 73 -10 73 C-10.33 61.45 -10.66 49.9 -11 38 C-12.5675 41.7125 -14.135 45.425 -15.75 49.25 C-16.47848145 50.96558105 -16.47848145 50.96558105 -17.22167969 52.71582031 C-19.80428512 58.87498754 -22.0611222 65.05891422 -24.12011719 71.41113281 C-25.11030592 74.32455161 -26.3105747 77.03108554 -27.75 79.75 C-28.17796875 80.56984375 -28.6059375 81.3896875 -29.046875 82.234375 C-29.51867188 83.10835937 -29.51867188 83.10835937 -30 84 C-30.66 84 -31.32 84 -32 84 C-31.57732724 79.03359507 -30.37445869 75.37039604 -28.25390625 70.88671875 C-25.44397397 64.41774692 -23.29567697 57.66511546 -21 51 C-20.34 51 -19.68 51 -19 51 C-18.88124512 50.1344751 -18.76249023 49.2689502 -18.64013672 48.37719727 C-18.00129461 45.00683001 -17.0298677 42.14548633 -15.7578125 38.96484375 C-15.30954102 37.83030762 -14.86126953 36.69577148 -14.39941406 35.52685547 C-13.93760742 34.36299316 -13.47580078 33.19913086 -13 32 C-12.13965055 29.75266883 -11.28283664 27.50398072 -10.4296875 25.25390625 C-9.578125 23.0234375 -8.7265625 20.79296875 -7.875 18.5625 C-7.44574219 17.43134766 -7.01648438 16.30019531 -6.57421875 15.13476562 C-6.15527344 14.03970703 -5.73632812 12.94464844 -5.3046875 11.81640625 C-4.93327637 10.84131104 -4.56186523 9.86621582 -4.17919922 8.86157227 C-2.92797226 5.8252097 -1.50157329 2.91960568 0 0 Z " fill="#D7D735" transform="translate(66,8)"/>
<path d="M0 0 C0.33 0 0.66 0 1 0 C1 11.88 1 23.76 1 36 C3.97 36 6.94 36 10 36 C10 32.04 10 28.08 10 24 C8.35 24 6.7 24 5 24 C5 19.38 5 14.76 5 10 C11.27 10 17.54 10 24 10 C24 20.56 24 31.12 24 42 C23.34 42 22.68 42 22 42 C21.7525 42.5775 21.505 43.155 21.25 43.75 C19.6883556 46.56095993 18.60142525 48.04090197 16 50 C12.74797261 50.70682915 9.56974287 50.76024147 6.25 50.75 C4.89781372 50.75169189 4.89781372 50.75169189 3.51831055 50.75341797 C-1.84776602 50.57440202 -5.24961111 50.09901631 -9.1875 46.125 C-10.71714621 44.12607122 -11.87741947 42.24516106 -13 40 C-13.99 42.97 -14.98 45.94 -16 49 C-17.65 48.67 -19.3 48.34 -21 48 C-20.01 47.505 -20.01 47.505 -19 47 C-18.23101653 45.18969954 -18.23101653 45.18969954 -17.625 43 C-16.64145246 39.87319961 -15.5677938 36.90999992 -14.1875 33.9375 C-12.27458058 29.76120263 -10.6538357 25.49400174 -9.0625 21.1875 C-1.93493566 1.93493566 -1.93493566 1.93493566 0 0 Z M-2 8 C-10.09724862 23.80299339 -10.09724862 23.80299339 -10 41 C-7.91308654 44.33867667 -5.68434108 46.59166925 -1.79150391 47.53540039 C0.70859853 47.73511272 3.11928965 47.72137347 5.625 47.625 C6.470625 47.63144531 7.31625 47.63789062 8.1875 47.64453125 C12.16634993 47.57549758 14.32620786 47.49872832 17.5859375 45.0859375 C19.18704077 43.14409922 19.18704077 43.14409922 19 41 C19.99 41 20.98 41 22 41 C22 31.43 22 21.86 22 12 C17.05 12 12.1 12 7 12 C7 15.3 7 18.6 7 22 C8.65 22 10.3 22 12 22 C12 27.28 12 32.56 12 38 C7.71 38 3.42 38 -1 38 C-1 28.1 -1 18.2 -1 8 C-1.33 8 -1.66 8 -2 8 Z " fill="#C8CB2C" transform="translate(55,45)"/>
<path d="M0 0 C6.27 0 12.54 0 19 0 C20.32 5.61 21.64 11.22 23 17 C24.32 15.68 25.64 14.36 27 13 C27.59720137 18.82271337 25.528243 22.9209404 23 28 C22.34 28 21.68 28 21 28 C20.16137685 24.39704301 19.33001323 20.79244935 18.5 17.1875 C18.26152344 16.16333984 18.02304687 15.13917969 17.77734375 14.08398438 C17.55175781 13.10107422 17.32617188 12.11816406 17.09375 11.10546875 C16.88427734 10.19949951 16.67480469 9.29353027 16.45898438 8.36010742 C16 6 16 6 16 3 C11.38 3 6.76 3 2 3 C1.89558594 4.48242188 1.79117188 5.96484375 1.68359375 7.4921875 C1.05300208 14.41428863 -0.21430191 21.19085904 -1.52905273 28.00732422 C-1.9380054 30.12762033 -2.33977608 32.2491785 -2.74023438 34.37109375 C-4.04967757 41.27388998 -5.42174351 48.15326413 -7 55 C-8.32 55 -9.64 55 -11 55 C-11 59.62 -11 64.24 -11 69 C-5.39 69 0.22 69 6 69 C5 74 5 74 4 76 C3.34 76 2.68 76 2 76 C2 74.68 2 73.36 2 72 C-3.28 72 -8.56 72 -14 72 C-14 65.4 -14 58.8 -14 52 C-12.35 52 -10.7 52 -9 52 C-9.12375 50.2984375 -9.12375 50.2984375 -9.25 48.5625 C-9.25 43.24618202 -8.00147015 38.35264521 -6.71069336 33.23803711 C-4.85544405 25.74970903 -3.56888215 18.18743275 -2.30761719 10.57958984 C-2.15067383 9.63809082 -1.99373047 8.6965918 -1.83203125 7.7265625 C-1.69514893 6.88689941 -1.5582666 6.04723633 -1.41723633 5.18212891 C-1 3 -1 3 0 0 Z " fill="#222113" transform="translate(32,2)"/>
<path d="M0 0 C0.33 0 0.66 0 1 0 C1 9.9 1 19.8 1 30 C5.29 30 9.58 30 14 30 C14 24.72 14 19.44 14 14 C12.35 14 10.7 14 9 14 C9 10.7 9 7.4 9 4 C13.95 4 18.9 4 24 4 C24 13.57 24 23.14 24 33 C23.67 33 23.34 33 23 33 C23 23.76 23 14.52 23 5 C18.71 5 14.42 5 10 5 C10 7.64 10 10.28 10 13 C11.65 13 13.3 13 15 13 C15.1938211 15.97888126 15.38035102 18.95790246 15.5625 21.9375 C15.61857422 22.78763672 15.67464844 23.63777344 15.73242188 24.51367188 C15.78076172 25.32255859 15.82910156 26.13144531 15.87890625 26.96484375 C15.9260376 27.7137085 15.97316895 28.46257324 16.02172852 29.23413086 C16 31 16 31 15 32 C11.84343266 32.06026859 8.70270408 32.0202576 5.546875 31.9609375 C2.40659785 31.92428057 0.00503164 31.99832279 -3 33 C-3.73323796 35.01508358 -3.73323796 35.01508358 -4 37 C-6.70561319 34.78484657 -7.88709474 33.54913012 -8.6015625 30.07421875 C-8.68059056 18.65466461 -5.12911266 10.00923927 0 0 Z " fill="#282902" transform="translate(53,53)"/>
<path d="M0 0 C0.99 0 1.98 0 3 0 C0.94112495 6.45738085 -1.44060471 12.72646541 -4 19 C-7.88912654 28.60713412 -11.63630828 38.25499239 -15.24560547 47.97070312 C-17.24535441 53.34996307 -19.26198703 58.72289292 -21.28417969 64.09375 C-21.9877056 65.96725967 -22.68531292 67.84298842 -23.3828125 69.71875 C-23.81335937 70.8634375 -24.24390625 72.008125 -24.6875 73.1875 C-25.25017578 74.69376953 -25.25017578 74.69376953 -25.82421875 76.23046875 C-27.00873424 79.02057334 -28.27310952 81.50762772 -30 84 C-30.66 84 -31.32 84 -32 84 C-31.57732724 79.03359507 -30.37445869 75.37039604 -28.25390625 70.88671875 C-25.44397397 64.41774692 -23.29567697 57.66511546 -21 51 C-20.34 51 -19.68 51 -19 51 C-18.88124512 50.1344751 -18.76249023 49.2689502 -18.64013672 48.37719727 C-18.00129461 45.00683001 -17.0298677 42.14548633 -15.7578125 38.96484375 C-15.30954102 37.83030762 -14.86126953 36.69577148 -14.39941406 35.52685547 C-13.93760742 34.36299316 -13.47580078 33.19913086 -13 32 C-12.13965055 29.75266883 -11.28283664 27.50398072 -10.4296875 25.25390625 C-9.578125 23.0234375 -8.7265625 20.79296875 -7.875 18.5625 C-7.44574219 17.43134766 -7.01648438 16.30019531 -6.57421875 15.13476562 C-6.15527344 14.03970703 -5.73632812 12.94464844 -5.3046875 11.81640625 C-4.93327637 10.84131104 -4.56186523 9.86621582 -4.17919922 8.86157227 C-2.92797226 5.8252097 -1.50157329 2.91960568 0 0 Z " fill="#2F2E02" transform="translate(66,8)"/>
<path d="M0 0 C1.83843644 2.75765467 2.30119707 3.90849033 2.875 7 C3.55815614 9.9970721 3.80681898 10.81818257 6.125 13 C6.74375 13.33 7.3625 13.66 8 14 C7.58578731 16.48527616 7.22429589 18.5934637 6 20.8125 C4.82058983 23.39245975 4.62461723 25.79619993 4.44140625 28.609375 C3.7789309 32.19729459 2.28109737 35.58374034 1 39 C-5.27 38.67 -11.54 38.34 -18 38 C-18 34.7 -18 31.4 -18 28 C-16.68 28.33 -15.36 28.66 -14 29 C-14.99 29 -15.98 29 -17 29 C-17 31.64 -17 34.28 -17 37 C-12.38 37 -7.76 37 -3 37 C-3 34.36 -3 31.72 -3 29 C-3.66 29 -4.32 29 -5 29 C-4.67 26.36 -4.34 23.72 -4 21 C-2.35 20.67 -0.7 20.34 1 20 C0.484375 19.195625 -0.03125 18.39125 -0.5625 17.5625 C-2.41834377 12.96323501 -1.88638041 9.77416778 -1 5 C-0.814375 3.989375 -0.62875 2.97875 -0.4375 1.9375 C-0.293125 1.298125 -0.14875 0.65875 0 0 Z " fill="#B7B91B" transform="translate(41,31)"/>
<path d="M0 0 C0.33 0 0.66 0 1 0 C1 11.88 1 23.76 1 36 C3.97 36 6.94 36 10 36 C10 32.04 10 28.08 10 24 C8.35 24 6.7 24 5 24 C5 19.38 5 14.76 5 10 C11.27 10 17.54 10 24 10 C24 20.56 24 31.12 24 42 C22.02 42.495 22.02 42.495 20 43 C20.33 42.34 20.66 41.68 21 41 C21.15469367 38.82325217 21.25002106 36.6421652 21.31640625 34.4609375 C21.35830078 33.15898438 21.40019531 31.85703125 21.44335938 30.515625 C21.48317299 29.13541955 21.52288522 27.75521117 21.5625 26.375 C21.60569407 24.98696585 21.64930865 23.59894472 21.69335938 22.2109375 C21.79971934 18.80741871 21.90038918 15.403723 22 12 C17.05 12 12.1 12 7 12 C7 15.3 7 18.6 7 22 C8.65 22 10.3 22 12 22 C12 27.28 12 32.56 12 38 C8.04 38 4.08 38 0 38 C0 27.44 0 16.88 0 6 C-0.66 6 -1.32 6 -2 6 C-1.125 1.125 -1.125 1.125 0 0 Z " fill="#EAEB3D" transform="translate(55,45)"/>
<path d="M0 0 C0.33 0 0.66 0 1 0 C1.37471553 7.63843204 -0.04097167 14.82202989 -1.4375 22.3125 C-1.66759766 23.58673828 -1.89769531 24.86097656 -2.13476562 26.17382812 C-3.84379574 35.53138722 -3.84379574 35.53138722 -5 39 C-6.32 39 -7.64 39 -9 39 C-9 42.3 -9 45.6 -9 49 C-7.30230469 48.98259766 -7.30230469 48.98259766 -5.5703125 48.96484375 C-4.08854331 48.95546546 -2.60677235 48.9463653 -1.125 48.9375 C-0.37863281 48.92912109 0.36773437 48.92074219 1.13671875 48.91210938 C6.7734375 48.88671875 6.7734375 48.88671875 9 50 C7.96927339 55.73680734 6.36965684 60.70999422 3.88671875 65.98046875 C2.87463537 68.28552209 2.3219808 70.50464876 2 73 C2.99 73 3.98 73 5 73 C5.33 72.34 5.66 71.68 6 71 C6 72.32 6 73.64 6 75 C4.02 74.67 2.04 74.34 0 74 C-1.48193168 69.44510955 0.14866778 66.19962243 1.875 61.9375 C2.43507366 60.5091843 2.99497612 59.08080146 3.5546875 57.65234375 C4.03164063 56.44707031 4.50859375 55.24179688 5 54 C5.33 53.01 5.66 52.02 6 51 C0.39 51 -5.22 51 -11 51 C-11 46.38 -11 41.76 -11 37 C-9.68 37 -8.36 37 -7 37 C-6.8865625 35.80375 -6.773125 34.6075 -6.65625 33.375 C-5.93121054 26.85985668 -4.70292946 20.44082801 -3.5 14 C-3.27441406 12.76121094 -3.04882812 11.52242187 -2.81640625 10.24609375 C-2.59855469 9.07175781 -2.38070313 7.89742187 -2.15625 6.6875 C-1.95837891 5.61886719 -1.76050781 4.55023438 -1.55664062 3.44921875 C-1 1 -1 1 0 0 Z " fill="#D6D429" transform="translate(32,20)"/>
<path d="M0 0 C0.60328125 0.20496094 1.2065625 0.40992188 1.828125 0.62109375 C3.02695313 1.02521484 3.02695313 1.02521484 4.25 1.4375 C5.03890625 1.70433594 5.8278125 1.97117188 6.640625 2.24609375 C8.74821988 2.91954708 10.84753973 3.49150595 13 4 C12.35983027 9.13756468 10.80299667 13.58790181 8.9375 18.375 C8.65583984 19.11105469 8.37417969 19.84710937 8.08398438 20.60546875 C7.39433382 22.4055736 6.69786068 24.2030621 6 26 C6.58265625 26.10183594 7.1653125 26.20367188 7.765625 26.30859375 C10.37219275 27.11517153 11.73535414 28.24157009 13.75 30.0625 C14.67039062 30.88427734 14.67039062 30.88427734 15.609375 31.72265625 C16.06828125 32.14417969 16.5271875 32.56570312 17 33 C16.34 34.32 15.68 35.64 15 37 C14.57589844 36.50628906 14.15179688 36.01257812 13.71484375 35.50390625 C9.65721731 30.95961417 9.65721731 30.95961417 4.0625 29.0625 C2.5465625 29.0315625 2.5465625 29.0315625 1 29 C3.18340181 21.13620323 5.99285026 13.58324716 9 6 C8.236875 5.855625 7.47375 5.71125 6.6875 5.5625 C4 5 4 5 1 4 C0.896875 4.825 0.79375 5.65 0.6875 6.5 C-0.11646056 10.59289012 -1.46352158 14.12540225 -3 18 C-3.99 17.34 -4.98 16.68 -6 16 C-4.43551329 10.3856009 -2.83604813 5.13189662 0 0 Z " fill="#2B271D" transform="translate(63,0)"/>
<path d="M0 0 C0.66 0 1.32 0 2 0 C2.33 1.98 2.66 3.96 3 6 C3.61488281 5.97679687 4.22976562 5.95359375 4.86328125 5.9296875 C5.67152344 5.91164063 6.47976562 5.89359375 7.3125 5.875 C8.11300781 5.85179687 8.91351563 5.82859375 9.73828125 5.8046875 C12 6 12 6 15 8 C17.32387947 8.39387788 19.65793749 8.73486085 22 9 C22 9.33 22 9.66 22 10 C15.73 10 9.46 10 3 10 C3 14.62 3 19.24 3 24 C4.65 24 6.3 24 8 24 C8 27.96 8 31.92 8 36 C5.36 36 2.72 36 0 36 C0 24.12 0 12.24 0 0 Z " fill="#0E0E02" transform="translate(57,45)"/>
<path d="M0 0 C1.40655749 2.81311499 0.98227847 5.11746864 0.875 8.25 C0.81733336 13.45729764 1.05831915 16.71004876 4 21 C2.73160474 21.50615298 1.46016898 22.00469099 0.1875 22.5 C-0.52019531 22.7784375 -1.22789063 23.056875 -1.95703125 23.34375 C-4 24 -4 24 -7 24 C-8.9078584 20.8250906 -9.1609041 18.89414789 -8.625 15.25 C-8.51414062 14.45078125 -8.40328125 13.6515625 -8.2890625 12.828125 C-8.19367187 12.22484375 -8.09828125 11.6215625 -8 11 C-7.67 11.66 -7.34 12.32 -7 13 C-6.67 12.01 -6.34 11.02 -6 10 C-6.33 9.34 -6.66 8.68 -7 8 C-7.039992 6.00039988 -7.04346799 3.99952758 -7 2 C-4.35261084 0.5393715 -3.10551666 0 0 0 Z " fill="#050403" transform="translate(39,30)"/>
<path d="M0 0 C3.85968042 -0.57895206 6.39433677 -0.86017673 9.859375 0.99609375 C12.61995874 3.31629865 13.86070489 5.00418814 14.3671875 8.625 C14.37425631 11.11322164 14.26393297 13.52685036 14 16 C11.36 16 8.72 16 6 16 C6 13.69 6 11.38 6 9 C3.03 9 0.06 9 -3 9 C-2.5020163 5.26512223 -2.12508244 3.18762365 0 0 Z " fill="#040206" transform="translate(62,31)"/>
<path d="M0 0 C0.66 0 1.32 0 2 0 C2 16.83 2 33.66 2 51 C1.01 51.495 1.01 51.495 0 52 C0 41.11 0 30.22 0 19 C-3.3 19 -6.6 19 -10 19 C-10 18.34 -10 17.68 -10 17 C-12.31 16.67 -14.62 16.34 -17 16 C-17 14.02 -17 12.04 -17 10 C-16.34 10 -15.68 10 -15 10 C-15 11.65 -15 13.3 -15 15 C-10.05 15 -5.1 15 0 15 C0 10.05 0 5.1 0 0 Z " fill="#0E0D00" transform="translate(79,35)"/>
<path d="M0 0 C-1.79297568 6.50632841 -3.67237215 13.08571407 -7 19 C-7.66 19.33 -8.32 19.66 -9 20 C-9.50904657 18.12743583 -10.00682455 16.25180659 -10.5 14.375 C-10.7784375 13.33085937 -11.056875 12.28671875 -11.34375 11.2109375 C-12 8 -12 8 -12 2 C-18.27 2 -24.54 2 -31 2 C-31 1.67 -31 1.34 -31 1 C-20.66061606 0.39434571 -10.3625183 -0.18615302 0 0 Z " fill="#EEEFEC" transform="translate(63,0)"/>
<path d="M0 0 C0.33 0 0.66 0 1 0 C1 3.63 1 7.26 1 11 C-0.32 11 -1.64 11 -3 11 C-3 15.62 -3 20.24 -3 25 C2.61 25 8.22 25 14 25 C13 30 13 30 12 32 C11.34 32 10.68 32 10 32 C10 30.68 10 29.36 10 28 C4.72 28 -0.56 28 -6 28 C-6 21.4 -6 14.8 -6 8 C-4.35 8 -2.7 8 -1 8 C-0.67 5.36 -0.34 2.72 0 0 Z " fill="#1D1B0D" transform="translate(24,46)"/>
<path d="M0 0 C2.76276177 0.52268466 5.3260876 1.10869587 8 2 C7.26905294 7.05485927 5.31619096 11.59903179 3.4375 16.3125 C3.10814453 17.14845703 2.77878906 17.98441406 2.43945312 18.84570312 C1.63001123 20.89863546 0.81676543 22.94997286 0 25 C-0.99 25 -1.98 25 -3 25 C-1.033631 17.63011293 1.69582578 10.86954798 5 4 C1.81534382 4.67272319 1.81534382 4.67272319 0.77319336 7.39257812 C0.1874353 8.9462207 0.1874353 8.9462207 -0.41015625 10.53125 C-0.84263672 11.65144531 -1.27511719 12.77164062 -1.72070312 13.92578125 C-2.38489258 15.69501953 -2.38489258 15.69501953 -3.0625 17.5 C-3.94305005 19.82526205 -4.82946248 22.14831537 -5.72265625 24.46875 C-6.11203369 25.50451172 -6.50141113 26.54027344 -6.90258789 27.60742188 C-8 30 -8 30 -10 31 C-8.70950376 21.96652631 -5.36273791 14.15063749 -1.72436523 5.85595703 C-0.97138824 3.9266914 -0.46010987 2.01734041 0 0 Z " fill="#CED127" transform="translate(64,4)"/>
<path d="M0 0 C0.33 0 0.66 0 1 0 C1.25485164 7.22172106 1.42920056 14.44227238 1.54931641 21.66748047 C1.59941566 24.12169723 1.66751822 26.57561835 1.75439453 29.02880859 C2.54862761 52.04288011 2.54862761 52.04288011 -3.28125 58.625 C-8.989748 62.85850722 -14.22627536 63.19550522 -21.125 62.625 C-22.176875 62.57988281 -23.22875 62.53476563 -24.3125 62.48828125 C-26.88117522 62.37152329 -29.43740061 62.20826327 -32 62 C-32.33 61.34 -32.66 60.68 -33 60 C-25.74 60.33 -18.48 60.66 -11 61 C-10.34 59.68 -9.68 58.36 -9 57 C-6.7059957 53.76719527 -4.87482476 51.29160825 -1 50 C-0.67 33.5 -0.34 17 0 0 Z " fill="#32312D" transform="translate(81,36)"/>
<path d="M0 0 C0.66 0 1.32 0 2 0 C2.94359375 1.46566406 2.94359375 1.46566406 3.90625 2.9609375 C5.70793986 5.20512451 6.63811234 5.91836156 9.48046875 6.55957031 C12.50647639 6.73605302 15.47049486 6.71955384 18.5 6.625 C20.04880859 6.63466797 20.04880859 6.63466797 21.62890625 6.64453125 C26.33281124 6.57776615 29.18153175 6.51849566 33.21875 3.9609375 C33.8065625 3.31382813 34.394375 2.66671875 35 2 C33.69696904 4.90676138 32.58659988 7.10074364 30 9 C27.48272281 9.26153286 25.21896034 9.3497922 22.70703125 9.29296875 C21.64798836 9.28660149 21.64798836 9.28660149 20.56755066 9.28010559 C18.31547697 9.26333034 16.06430258 9.22568243 13.8125 9.1875 C12.28451815 9.17245157 10.75652224 9.15876344 9.22851562 9.14648438 C5.48533128 9.11343089 1.74281804 9.06165832 -2 9 C-1.125 2.25 -1.125 2.25 0 0 Z " fill="#F2F2F1" transform="translate(42,91)"/>
<path d="M0 0 C0.99 0.495 0.99 0.495 2 1 C1.67 4.96 1.34 8.92 1 13 C2.80597656 12.87431641 2.80597656 12.87431641 4.6484375 12.74609375 C6.22393916 12.6429359 7.79946109 12.54008734 9.375 12.4375 C10.1690625 12.38142578 10.963125 12.32535156 11.78125 12.26757812 C17.7734375 11.88671875 17.7734375 11.88671875 20 13 C18.96927339 18.73680734 17.36965684 23.70999422 14.88671875 28.98046875 C13.87463537 31.28552209 13.3219808 33.50464876 13 36 C13.99 36 14.98 36 16 36 C16.33 35.34 16.66 34.68 17 34 C17 35.32 17 36.64 17 38 C15.02 37.67 13.04 37.34 11 37 C9.51806832 32.44510955 11.14866778 29.19962243 12.875 24.9375 C13.43507366 23.5091843 13.99497612 22.08080146 14.5546875 20.65234375 C15.03164063 19.44707031 15.50859375 18.24179688 16 17 C16.33 16.01 16.66 15.02 17 14 C11.39 14 5.78 14 0 14 C0 9.38 0 4.76 0 0 Z " fill="#D1D32F" transform="translate(21,57)"/>
<path d="M0 0 C1.23696333 3.71088998 0.57465721 6.45661419 -0.14453125 10.1875 C-0.27437912 10.88641357 -0.40422699 11.58532715 -0.53800964 12.30541992 C-0.81437351 13.78210829 -1.09452295 15.25809247 -1.37817383 16.73339844 C-1.8105152 18.989642 -2.2273611 21.2483624 -2.64257812 23.5078125 C-2.91313592 24.94288333 -3.18459053 26.37778544 -3.45703125 27.8125 C-3.64311699 28.82509888 -3.64311699 28.82509888 -3.83296204 29.8581543 C-4.47722408 33.1565906 -5.10404562 35.15606843 -7 38 C-7.66 37.34 -8.32 36.68 -9 36 C-8.58697506 31.35488388 -7.58141135 26.85800605 -6.5625 22.3125 C-5.32233383 16.7047921 -4.36474318 11.12026262 -3.625 5.42578125 C-2.93481008 2.74698163 -2.11909677 1.72176613 0 0 Z " fill="#29260E" transform="translate(32,13)"/>
<path d="M0 0 C6.27 0 12.54 0 19 0 C19 10.56 19 21.12 19 32 C17.02 32.495 17.02 32.495 15 33 C15.33 32.34 15.66 31.68 16 31 C16.15469367 28.82325217 16.25002106 26.6421652 16.31640625 24.4609375 C16.35830078 23.15898438 16.40019531 21.85703125 16.44335938 20.515625 C16.48317299 19.13541955 16.52288522 17.75521117 16.5625 16.375 C16.60569407 14.98696585 16.64930865 13.59894472 16.69335938 12.2109375 C16.79971934 8.80741871 16.90038918 5.403723 17 2 C11.72 2 6.44 2 1 2 C1 4.64 1 7.28 1 10 C0.67 10 0.34 10 0 10 C0 6.7 0 3.4 0 0 Z " fill="#E3E638" transform="translate(60,55)"/>
<path d="M0 0 C1.83843644 2.75765467 2.30119707 3.90849033 2.875 7 C3.55815614 9.9970721 3.80681898 10.81818257 6.125 13 C6.74375 13.33 7.3625 13.66 8 14 C7.47731534 16.76276177 6.89130413 19.3260876 6 22 C2.7 22 -0.6 22 -4 22 C-4 21.67 -4 21.34 -4 21 C-2.35 20.67 -0.7 20.34 1 20 C0.484375 19.195625 -0.03125 18.39125 -0.5625 17.5625 C-2.41834377 12.96323501 -1.88638041 9.77416778 -1 5 C-0.814375 3.989375 -0.62875 2.97875 -0.4375 1.9375 C-0.2209375 0.9784375 -0.2209375 0.9784375 0 0 Z " fill="#181501" transform="translate(41,31)"/>
<path d="M0 0 C0 4.29 0 8.58 0 13 C-4.95 13 -9.9 13 -15 13 C-15 11.35 -15 9.7 -15 8 C-15.66 8 -16.32 8 -17 8 C-17 10.31 -17 12.62 -17 15 C-17.99 14.67 -18.98 14.34 -20 14 C-20.33 11.36 -20.66 8.72 -21 6 C-18.69 6 -16.38 6 -14 6 C-14 7.98 -14 9.96 -14 12 C-13.34 11.67 -12.68 11.34 -12 11 C-12 8.69 -12 6.38 -12 4 C-14.97 4 -17.94 4 -21 4 C-20.67 3.34 -20.34 2.68 -20 2 C-17.03 2.33 -14.06 2.66 -11 3 C-11 5.31 -11 7.62 -11 10 C-8.36 10 -5.72 10 -3 10 C-3 7.03 -3 4.06 -3 1 C-1 0 -1 0 0 0 Z " fill="#AAAB19" transform="translate(79,37)"/>
<path d="M0 0 C0.66 0.66 1.32 1.32 2 2 C1.75 4.5625 1.75 4.5625 1 8 C0.82855469 8.79019531 0.65710937 9.58039063 0.48046875 10.39453125 C-0.00208419 12.59899972 -0.49649856 14.80023641 -1 17 C1.64 17.66 4.28 18.32 7 19 C7 20.65 7 22.3 7 24 C4.02277453 23.29666462 1.14743457 22.41751463 -1.75 21.4375 C-2.54921875 21.16808594 -3.3484375 20.89867188 -4.171875 20.62109375 C-4.77515625 20.41613281 -5.3784375 20.21117188 -6 20 C-5.38656907 15.73154313 -4.39373582 11.82872687 -3 7.75 C-2.649375 6.71359375 -2.29875 5.6771875 -1.9375 4.609375 C-1 2 -1 2 0 0 Z " fill="#16130A" transform="translate(33,76)"/>
<path d="M0 0 C0.33 0 0.66 0 1 0 C1 9.24 1 18.48 1 28 C0.34 28 -0.32 28 -1 28 C-1.28875 28.61875 -1.5775 29.2375 -1.875 29.875 C-3 32 -3 32 -5 34 C-6.97119141 34.22705078 -6.97119141 34.22705078 -9.3515625 34.1953125 C-10.20234375 34.18886719 -11.053125 34.18242188 -11.9296875 34.17578125 C-12.81914063 34.15902344 -13.70859375 34.14226562 -14.625 34.125 C-15.97078125 34.11146484 -15.97078125 34.11146484 -17.34375 34.09765625 C-19.56276586 34.0740497 -21.78125077 34.0411231 -24 34 C-24.33 33.34 -24.66 32.68 -25 32 C-19.06 32 -13.12 32 -7 32 C-7.33 31.01 -7.66 30.02 -8 29 C-6.8125 26.3125 -6.8125 26.3125 -5 24 C-3.68 24 -2.36 24 -1 24 C-0.67 16.08 -0.34 8.16 0 0 Z " fill="#100E01" transform="translate(75,58)"/>
<path d="M0 0 C6.6 0 13.2 0 20 0 C20 0.33 20 0.66 20 1 C13.73 1 7.46 1 1 1 C1 5.62 1 10.24 1 15 C2.65 15 4.3 15 6 15 C6 18.96 6 22.92 6 27 C3.36 27 0.72 27 -2 27 C-2 26.67 -2 26.34 -2 26 C0.31 26 2.62 26 5 26 C4.67 23.69 4.34 21.38 4 19 C3.67 20.65 3.34 22.3 3 24 C2.01 23.67 1.02 23.34 0 23 C0 15.41 0 7.82 0 0 Z " fill="#646325" transform="translate(59,54)"/>
<path d="M0 0 C1.051875 0.01160156 1.051875 0.01160156 2.125 0.0234375 C2.82625 0.01570313 3.5275 0.00796875 4.25 0 C6.125 0.3984375 6.125 0.3984375 8.125 3.3984375 C6.805 3.0684375 5.485 2.7384375 4.125 2.3984375 C4.125 3.3884375 4.125 4.3784375 4.125 5.3984375 C3.465 5.3984375 2.805 5.3984375 2.125 5.3984375 C2.455 6.7184375 2.785 8.0384375 3.125 9.3984375 C0.485 9.3984375 -2.155 9.3984375 -4.875 9.3984375 C-3.72748714 0.79209102 -3.72748714 0.79209102 0 0 Z " fill="#0B0C02" transform="translate(63.875,30.6015625)"/>
<path d="M0 0 C0.33 0 0.66 0 1 0 C0.44159624 6.27130377 -1.56492152 11.57163106 -3.9375 17.375 C-4.29779297 18.28894531 -4.65808594 19.20289062 -5.02929688 20.14453125 C-7.74309272 26.87154636 -7.74309272 26.87154636 -10 28 C-8.85499751 19.98498255 -5.97081194 5.97081194 0 0 Z " fill="#D2D329" transform="translate(64,7)"/>
<path d="M0 0 C4.62 0 9.24 0 14 0 C14 0.33 14 0.66 14 1 C10.37 1.66 6.74 2.32 3 3 C2.01 8.28 1.02 13.56 0 19 C-2.00439736 14.99120528 -2.21741766 14.20607303 -1.6875 10.0625 C-1.58824219 9.22847656 -1.48898438 8.39445313 -1.38671875 7.53515625 C-1.00159602 5.0104628 -0.50086066 2.50430332 0 0 Z " fill="#C5C825" transform="translate(34,5)"/>
<path d="M0 0 C0.33 0.99 0.66 1.98 1 3 C2.0209375 3.061875 2.0209375 3.061875 3.0625 3.125 C7.25515787 4.37387681 9.8592439 7.04026731 13 10 C12.34 11.32 11.68 12.64 11 14 C10.57589844 13.50628906 10.15179688 13.01257812 9.71484375 12.50390625 C5.65721731 7.95961417 5.65721731 7.95961417 0.0625 6.0625 C-1.4534375 6.0315625 -1.4534375 6.0315625 -3 6 C-2 4 -1 2 0 0 Z " fill="#312E17" transform="translate(67,23)"/>
<path d="M0 0 C0.99 0 1.98 0 3 0 C0.94235079 6.45353615 -1.42383482 12.7361263 -4 19 C-4.99 18.67 -5.98 18.34 -7 18 C-5.26375242 11.5811453 -3.14819255 5.86215164 0 0 Z " fill="#343302" transform="translate(66,8)"/>
<path d="M0 0 C0.33 0 0.66 0 1 0 C1 11.88 1 23.76 1 36 C3.64 36 6.28 36 9 36 C9 36.33 9 36.66 9 37 C6.03 37 3.06 37 0 37 C0 26.77 0 16.54 0 6 C-0.66 6 -1.32 6 -2 6 C-1.125 1.125 -1.125 1.125 0 0 Z " fill="#F6F431" transform="translate(55,45)"/>
<path d="M0 0 C4.31776309 -0.54732208 8.24096262 -0.87179006 12.22265625 1.1015625 C15.60372583 3.92027759 16.86555797 5.93926471 17.42578125 10.359375 C17.43640867 13.60428121 17.30593973 16.77063618 17 20 C16.67 20 16.34 20 16 20 C15.99742188 19.27554688 15.99484375 18.55109375 15.9921875 17.8046875 C15.77659302 11.05631438 15.77659302 11.05631438 12.5 5.375 C8.80083617 2.23522192 4.70365239 2.02090512 0 2 C0 1.34 0 0.68 0 0 Z " fill="#EAEE34" transform="translate(61,29)"/>
<path d="M0 0 C0.33 0.66 0.66 1.32 1 2 C1.66 2 2.32 2 3 2 C2.27991594 6.60853797 0.68704061 10.67237409 -1 15 C-1.99 15 -2.98 15 -4 15 C-5 13 -5 13 -4.00390625 9.9609375 C-3.52824219 8.77757812 -3.05257812 7.59421875 -2.5625 6.375 C-2.08941406 5.18648437 -1.61632812 3.99796875 -1.12890625 2.7734375 C-0.75636719 1.85820312 -0.38382812 0.94296875 0 0 Z " fill="#3E391E" transform="translate(70,11)"/>
<path d="M0 0 C0.53625 0.639375 1.0725 1.27875 1.625 1.9375 C4.44367193 4.38529404 6.33860732 4.66714612 10 5 C10 6.65 10 8.3 10 10 C7.02277453 9.29666462 4.14743457 8.41751463 1.25 7.4375 C0.45078125 7.16808594 -0.3484375 6.89867188 -1.171875 6.62109375 C-2.07679687 6.31365234 -2.07679687 6.31365234 -3 6 C-2.01 5.67 -1.02 5.34 0 5 C0 3.35 0 1.7 0 0 Z " fill="#39391E" transform="translate(30,90)"/>
<path d="M0 0 C0.66 0 1.32 0 2 0 C1.17812739 4.38332057 0.09845718 8.67940177 -1 13 C-0.01 13 0.98 13 2 13 C2.33 12.34 2.66 11.68 3 11 C3 12.32 3 13.64 3 15 C0.03 14.505 0.03 14.505 -3 14 C-4.37095624 10.30962722 -3.60010967 8.29116165 -2.0625 4.75 C-1.68222656 3.85796875 -1.30195312 2.9659375 -0.91015625 2.046875 C-0.60980469 1.37140625 -0.30945312 0.6959375 0 0 Z " fill="#DEE131" transform="translate(35,80)"/>
<path d="M0 0 C0.66 0 1.32 0 2 0 C0.42451944 8.73675581 -3.03006217 16.11526236 -7 24 C-7.33 22.02 -7.66 20.04 -8 18 C-7.34 18 -6.68 18 -6 18 C-5.896875 17.34 -5.79375 16.68 -5.6875 16 C-4.41988238 10.46857766 -2.13211809 5.24829068 0 0 Z " fill="#C0C133" transform="translate(53,35)"/>
<path d="M0 0 C0.33 0 0.66 0 1 0 C1 4.62 1 9.24 1 14 C0.34 12.68 -0.32 11.36 -1 10 C-1.268125 10.78375 -1.53625 11.5675 -1.8125 12.375 C-3 15 -3 15 -6 17 C-4.33846988 11.14340094 -2.52958084 5.5409866 0 0 Z " fill="#121500" transform="translate(53,53)"/>
<path d="M0 0 C0.33 0 0.66 0 1 0 C1 3.63 1 7.26 1 11 C-0.65 11 -2.3 11 -4 11 C-4 15.95 -4 20.9 -4 26 C-4.33 26 -4.66 26 -5 26 C-5 20.39 -5 14.78 -5 9 C-4.01 8.67 -3.02 8.34 -2 8 C-1.19787372 6.12612784 -1.19787372 6.12612784 -0.8125 3.9375 C-0.65394531 3.20402344 -0.49539062 2.47054687 -0.33203125 1.71484375 C-0.22246094 1.14894531 -0.11289062 0.58304688 0 0 Z " fill="#0F0D01" transform="translate(24,46)"/>
<path d="M0 0 C0.66 0.33 1.32 0.66 2 1 C2 4 2 4 0.11328125 6.203125 C-4.31592388 8.75950437 -7.83707499 8.2174896 -12.8125 7.75 C-14.13797852 7.65138672 -14.13797852 7.65138672 -15.49023438 7.55078125 C-17.66170028 7.3864541 -19.83114674 7.19581403 -22 7 C-22 6.67 -22 6.34 -22 6 C-20.74703125 5.98582031 -19.4940625 5.97164063 -18.203125 5.95703125 C-16.55204672 5.91012562 -14.90100618 5.86187825 -13.25 5.8125 C-12.425 5.80669922 -11.6 5.80089844 -10.75 5.79492188 C-5.50941428 5.6364603 -5.50941428 5.6364603 -1.421875 2.44921875 C-0.95265625 1.64097656 -0.4834375 0.83273438 0 0 Z " fill="#BDC31B" transform="translate(74,86)"/>
<path d="M0 0 C0.33 0 0.66 0 1 0 C1 2.31 1 4.62 1 7 C-0.32 7 -1.64 7 -3 7 C-3 10.3 -3 13.6 -3 17 C1.62 17 6.24 17 11 17 C11 17.33 11 17.66 11 18 C6.05 18 1.1 18 -4 18 C-4 14.04 -4 10.08 -4 6 C-3.01 5.67 -2.02 5.34 -1 5 C-0.67 3.35 -0.34 1.7 0 0 Z " fill="#EFF437" transform="translate(26,52)"/>
<path d="M0 0 C2.31 0 4.62 0 7 0 C7 2.31 7 4.62 7 7 C6.67 7 6.34 7 6 7 C6 5.35 6 3.7 6 2 C5.34 2 4.68 2 4 2 C4 4.31 4 6.62 4 9 C3.01 8.67 2.02 8.34 1 8 C0.67 5.36 0.34 2.72 0 0 Z " fill="#5C5742" transform="translate(58,43)"/>
<path d="M0 0 C2.10827055 3.16240582 2.33817465 4.50657469 2.625 8.1875 C2.69976562 9.08855469 2.77453125 9.98960938 2.8515625 10.91796875 C2.90054688 11.60503906 2.94953125 12.29210938 3 13 C1.35 13 -0.3 13 -2 13 C-1.48041715 8.62065881 -0.94324258 4.31196609 0 0 Z " fill="#DFE12B" transform="translate(41,31)"/>
<path d="M0 0 C0.66 0 1.32 0 2 0 C1.56826373 5.09448798 1.24599784 8.84512277 -2 13 C-2.66 13 -3.32 13 -4 13 C-3.50269348 8.02693484 -2.44697666 4.36200187 0 0 Z " fill="#2A2800" transform="translate(38,79)"/>
<path d="M0 0 C0.33 0 0.66 0 1 0 C1.21203451 5.83094895 0.96947414 11.44413776 -1 17 C-1.66 17.33 -2.32 17.66 -3 18 C-1.43333333 1.43333333 -1.43333333 1.43333333 0 0 Z " fill="#E0E435" transform="translate(32,20)"/>
<path d="M0 0 C1.98 0 3.96 0 6 0 C5.51421457 3.12290635 5.0013988 5.99580359 4 9 C3.01 9 2.02 9 1 9 C1.020625 7.88625 1.04125 6.7725 1.0625 5.625 C1.26380718 2.16784079 1.26380718 2.16784079 0 0 Z " fill="#27251C" transform="translate(70,4)"/>
<path d="M0 0 C1.984375 1.17578125 1.984375 1.17578125 4 3 C4.390625 5.48046875 4.390625 5.48046875 4.25 8.1875 C4.21390625 9.08855469 4.1778125 9.98960938 4.140625 10.91796875 C4.07101563 11.94857422 4.07101563 11.94857422 4 13 C1.36 13 -1.28 13 -4 13 C-3.67 11.68 -3.34 10.36 -3 9 C-3 9.99 -3 10.98 -3 12 C-1.02 11.67 0.96 11.34 3 11 C2.7834375 10.37351562 2.566875 9.74703125 2.34375 9.1015625 C2.0653125 8.28429688 1.786875 7.46703125 1.5 6.625 C1.2215625 5.81289063 0.943125 5.00078125 0.65625 4.1640625 C0 2 0 2 0 0 Z " fill="#1B1A00" transform="translate(72,34)"/>
<path d="M0 0 C1.23076923 5.41538462 1.23076923 5.41538462 0.0625 8.375 C-0.288125 8.91125 -0.63875 9.4475 -1 10 C-1.33 7.36 -1.66 4.72 -2 2 C-4.97 2 -7.94 2 -11 2 C-11 1.67 -11 1.34 -11 1 C-7.27569643 0.30710631 -3.78916254 -0.11144596 0 0 Z " fill="#C0C41C" transform="translate(48,6)"/>
<path d="M0 0 C0.99 0.66 1.98 1.32 3 2 C1.68 5.3 0.36 8.6 -1 12 C-2.65 11.67 -4.3 11.34 -6 11 C-5.34 10.67 -4.68 10.34 -4 10 C-3.12884713 7.91918209 -3.12884713 7.91918209 -2.4375 5.5 C-1.09111617 1.09111617 -1.09111617 1.09111617 0 0 Z " fill="#C3C521" transform="translate(40,82)"/>
<path d="M0 0 C0.33 0.99 0.66 1.98 1 3 C1.804375 3.12375 2.60875 3.2475 3.4375 3.375 C4.7059375 3.684375 4.7059375 3.684375 6 4 C6.33 4.66 6.66 5.32 7 6 C3.7 6 0.4 6 -3 6 C-2 4 -1 2 0 0 Z " fill="#1D1C05" transform="translate(67,23)"/>
<path d="M0 0 C0.33 0 0.66 0 1 0 C1 3.63 1 7.26 1 11 C1.66 11 2.32 11 3 11 C3 11.66 3 12.32 3 13 C3.66 13.33 4.32 13.66 5 14 C4.67 15.32 4.34 16.64 4 18 C2.015625 16.453125 2.015625 16.453125 0 14 C-0.390625 10.546875 -0.390625 10.546875 -0.25 6.75 C-0.21390625 5.48671875 -0.1778125 4.2234375 -0.140625 2.921875 C-0.09421875 1.95765625 -0.0478125 0.9934375 0 0 Z " fill="#454201" transform="translate(45,72)"/>
<path d="M0 0 C0.33 0 0.66 0 1 0 C1 3.3 1 6.6 1 10 C2.65 10 4.3 10 6 10 C6 10.99 6 11.98 6 13 C3.69 12.67 1.38 12.34 -1 12 C-0.67 8.04 -0.34 4.08 0 0 Z " fill="#DFE227" transform="translate(61,57)"/>
<path d="M0 0 C2.31 1.98 4.62 3.96 7 6 C5.02 6.99 5.02 6.99 3 8 C1.5 6.8125 1.5 6.8125 0 5 C-0.1875 2.3125 -0.1875 2.3125 0 0 Z " fill="#343019" transform="translate(44,88)"/>
<path d="M0 0 C0.99 0.66 1.98 1.32 3 2 C2.01 5.3 1.02 8.6 0 12 C-2 9 -2 9 -1.7578125 6.73828125 C-1.44457031 5.53751953 -1.44457031 5.53751953 -1.125 4.3125 C-0.92132813 3.50425781 -0.71765625 2.69601563 -0.5078125 1.86328125 C-0.34023438 1.24839844 -0.17265625 0.63351563 0 0 Z " fill="#3D3B03" transform="translate(41,70)"/>
<path d="M0 0 C0.33 0 0.66 0 1 0 C1.36923077 5.41538462 1.36923077 5.41538462 -0.5 8.375 C-0.995 8.91125 -1.49 9.4475 -2 10 C-2 9.34 -2 8.68 -2 8 C-2.66 8 -3.32 8 -4 8 C-3.4021799 4.65220745 -2.20964398 2.57791798 0 0 Z " fill="#262315" transform="translate(58,15)"/>
<path d="M0 0 C0.66 0 1.32 0 2 0 C2.33 3.63 2.66 7.26 3 11 C2.01 11.495 2.01 11.495 1 12 C-0.3271261 8.0186217 -0.06915913 4.14954773 0 0 Z " fill="#DFDF30" transform="translate(48,12)"/>
<path d="M0 0 C4.29 0 8.58 0 13 0 C13 0.33 13 0.66 13 1 C12.22914062 1.12117187 11.45828125 1.24234375 10.6640625 1.3671875 C9.66117188 1.53476563 8.65828125 1.70234375 7.625 1.875 C6.12839844 2.11863281 6.12839844 2.11863281 4.6015625 2.3671875 C1.8574885 2.7958802 1.8574885 2.7958802 0 5 C0 3.35 0 1.7 0 0 Z " fill="#E0E23A" transform="translate(35,5)"/>
<path d="M0 0 C1.65 0 3.3 0 5 0 C4.25 6.75 4.25 6.75 2 9 C2 6.69 2 4.38 2 2 C1.34 2 0.68 2 0 2 C0 1.34 0 0.68 0 0 Z " fill="#494401" transform="translate(39,55)"/>
<path d="M0 0 C0.33 0.99 0.66 1.98 1 3 C1.66 3 2.32 3 3 3 C2.67 5.31 2.34 7.62 2 10 C1.34 10 0.68 10 0 10 C-0.74926071 6.33694766 -1.2380014 3.57644848 0 0 Z " fill="#151504" transform="translate(53,20)"/>
<path d="M0 0 C0.33 0 0.66 0 1 0 C1.144375 1.216875 1.28875 2.43375 1.4375 3.6875 C1.82780953 6.82670377 2.32351856 9.9075134 3 13 C2.01 13 1.02 13 0 13 C-0.19397476 11.02145742 -0.38001321 9.0421352 -0.5625 7.0625 C-0.66691406 5.96035156 -0.77132812 4.85820313 -0.87890625 3.72265625 C-0.91886719 2.82417969 -0.95882812 1.92570312 -1 1 C-0.67 0.67 -0.34 0.34 0 0 Z " fill="#F2F523" transform="translate(39,57)"/>
<path d="M0 0 C0.33 0 0.66 0 1 0 C1.17942163 3.94727588 1.09350689 6.5980513 -1 10 C-1.66 10 -2.32 10 -3 10 C-2.25 3.375 -2.25 3.375 0 0 Z " fill="#1C1E00" transform="translate(53,42)"/>
<path d="M0 0 C0.66 0 1.32 0 2 0 C1.34 2.97 0.68 5.94 0 9 C-0.66 9 -1.32 9 -2 9 C-2.25 3.375 -2.25 3.375 0 0 Z " fill="#292501" transform="translate(59,26)"/>
<path d="M0 0 C2.76276177 0.52268466 5.3260876 1.10869587 8 2 C7.67 2.99 7.34 3.98 7 5 C7 4.34 7 3.68 7 3 C5.02 3.66 3.04 4.32 1 5 C0.67 3.35 0.34 1.7 0 0 Z " fill="#C4C81E" transform="translate(64,4)"/>
<path d="M0 0 C0.99 0.33 1.98 0.66 3 1 C2.67 3.64 2.34 6.28 2 9 C1.01 8.34 0.02 7.68 -1 7 C-0.67 4.69 -0.34 2.38 0 0 Z " fill="#32351E" transform="translate(24,42)"/>
<path d="M0 0 C1.64826111 2.96687001 2.44271087 5.65626525 3 9 C2.01 9.33 1.02 9.66 0 10 C-0.66 10.99 -1.32 11.98 -2 13 C-1.39174965 8.65535464 -0.73832608 4.32448133 0 0 Z " fill="#373801" transform="translate(31,34)"/>
<path d="M0 0 C1.27875 -0.061875 2.5575 -0.12375 3.875 -0.1875 C4.95394531 -0.23970703 4.95394531 -0.23970703 6.0546875 -0.29296875 C6.69664063 -0.19628906 7.33859375 -0.09960938 8 0 C8.66 0.99 9.32 1.98 10 3 C6.37 3 2.74 3 -1 3 C-0.67 2.01 -0.34 1.02 0 0 Z " fill="#3F3C00" transform="translate(62,31)"/>
<path d="M0 0 C0.33 0 0.66 0 1 0 C0.56179109 4.55737263 0.14958831 7.57653445 -3 11 C-2.25 3.375 -2.25 3.375 0 0 Z " fill="#E0E132" transform="translate(64,7)"/>
<path d="M0 0 C0.33 0 0.66 0 1 0 C1 2.97 1 5.94 1 9 C0.01 9 -0.98 9 -2 9 C-2.20140476 5.37471432 -1.85776765 3.13498292 0 0 Z " fill="#EBEB1D" transform="translate(43,74)"/>
<path d="M0 0 C0.66 0 1.32 0 2 0 C1.49287967 3.71888239 0.88391785 6.73454239 -1 10 C-2.46726798 6.18510326 -1.43336419 3.70988378 0 0 Z " fill="#E4E933" transform="translate(69,7)"/>
<path d="M0 0 C0.33 0 0.66 0 1 0 C1.25 3.3125 1.25 3.3125 1 7 C-0.32 7.99 -1.64 8.98 -3 10 C-2.01 6.7 -1.02 3.4 0 0 Z " fill="#262401" transform="translate(50,60)"/>
<path d="M0 0 C0.99 0 1.98 0 3 0 C2.25 1.9375 2.25 1.9375 1 4 C-1.125 4.75 -1.125 4.75 -3 5 C-1.125 1.125 -1.125 1.125 0 0 Z " fill="#1E180E" transform="translate(73,92)"/>
<path d="M0 0 C0.33 0 0.66 0 1 0 C1.12375 0.7425 1.2475 1.485 1.375 2.25 C1.95486701 4.80141485 2.73708739 6.7267573 4 9 C3.34 9.66 2.68 10.32 2 11 C-0.67927341 6.98108988 -0.15601248 4.75838077 0 0 Z " fill="#D3D323" transform="translate(40,57)"/>
<path d="M0 0 C1.32 0 2.64 0 4 0 C3.34 2.31 2.68 4.62 2 7 C1.01 6.34 0.02 5.68 -1 5 C-0.67 3.35 -0.34 1.7 0 0 Z " fill="#3F3E1E" transform="translate(58,11)"/>
<path d="M0 0 C0.66 0.66 1.32 1.32 2 2 C1.625 5.125 1.625 5.125 1 8 C0.01 7.34 -0.98 6.68 -2 6 C-1.34 4.02 -0.68 2.04 0 0 Z " fill="#35351F" transform="translate(33,76)"/>
<path d="M0 0 C1 3 1 3 -0.4375 6.1875 C-1.2109375 7.5796875 -1.2109375 7.5796875 -2 9 C-3.21185923 5.36442231 -2.59260392 4.36216382 -1 1 C-0.67 0.67 -0.34 0.34 0 0 Z " fill="#E7EA30" transform="translate(57,26)"/>
<path d="M0 0 C0.33 0 0.66 0 1 0 C1.36923077 6.52307692 1.36923077 6.52307692 -0.5 8.9375 C-0.995 9.288125 -1.49 9.63875 -2 10 C-1.54177532 6.53058454 -1.10868317 3.32604951 0 0 Z " fill="#0B0806" transform="translate(32,6)"/>
</svg>
